<svg xmlns="http://www.w3.org/2000/svg" xmlns:xlink="http://www.w3.org/1999/xlink" viewBox="0 0 208.68 31.16"><defs><style>.cls-1{fill:url(#BLUE);}.cls-2{fill:url(#BLUE-2);}.cls-3{fill:url(#Безымянный_градиент_43);}.cls-4{fill:#fff;}</style><linearGradient id="BLUE" x1="27.57" y1="15.58" x2="64.52" y2="15.58" gradientUnits="userSpaceOnUse"><stop offset="0" stop-color="#2d2e83"/><stop offset="0.05" stop-color="#2b3488"/><stop offset="0.27" stop-color="#254f9d"/><stop offset="0.51" stop-color="#2162ac"/><stop offset="0.75" stop-color="#1e6db5"/><stop offset="1" stop-color="#1d71b8"/></linearGradient><linearGradient id="BLUE-2" x1="0" y1="15.58" x2="37.57" y2="15.58" xlink:href="#BLUE"/><linearGradient id="Безымянный_градиент_43" x1="62.35" y1="15.58" x2="208.68" y2="15.58" xlink:href="#BLUE"/></defs><g id="Слой_2" data-name="Слой 2"><g id="Слой_1-2" data-name="Слой 1"><path class="cls-1" d="M64.52,0,58.28,31.16H47.78l2.31-11.48h-9.7L38.07,31.16H27.57L33.8,0H44.31L42.08,11h9.7L54,0Z"/><path class="cls-2" d="M30.18,0H19.85L0,31.16H11.08l3.12-5.43H26.09l1,5.43H37.57ZM18.52,18.16l4.58-8,1.52,8Z"/><polygon class="cls-3" points="62.35 31.16 202.05 31.16 208.68 0 68.97 0 62.35 31.16"/><path class="cls-4" d="M88.22,9.42a5,5,0,0,1,1.85,4.11,6.76,6.76,0,0,1-1,3.72,6.87,6.87,0,0,1-3,2.49,10.66,10.66,0,0,1-4.48.89h-2.9l-.82,4.13H72.19L75.55,8H83A8.24,8.24,0,0,1,88.22,9.42Zm-4.53,6.25A2.1,2.1,0,0,0,84.33,14c0-1.14-.7-1.7-2.11-1.7h-1.9l-.79,3.93h2.33A2.6,2.6,0,0,0,83.69,15.67Z"/><path class="cls-4" d="M101.93,11.39l-1,4.8a8.06,8.06,0,0,0-1.18-.1,3.55,3.55,0,0,0-2.2.62,3.18,3.18,0,0,0-1.09,2l-1.22,6.07H89.85l2.62-13.13h5.11L97.32,13A6.32,6.32,0,0,1,101.93,11.39Z"/><path class="cls-4" d="M104.61,24.24a5.75,5.75,0,0,1-2.48-2.12,5.83,5.83,0,0,1-.88-3.19,7.27,7.27,0,0,1,1.06-3.86,7.4,7.4,0,0,1,2.92-2.7,8.92,8.92,0,0,1,4.21-1,8.72,8.72,0,0,1,3.77.76,5.75,5.75,0,0,1,2.48,2.12,5.83,5.83,0,0,1,.88,3.19,7.21,7.21,0,0,1-1.06,3.85,7.32,7.32,0,0,1-2.92,2.7,8.81,8.81,0,0,1-4.21,1A8.72,8.72,0,0,1,104.61,24.24Zm5.8-4.33a3.36,3.36,0,0,0,.66-2.18,2.09,2.09,0,0,0-.52-1.5,1.82,1.82,0,0,0-1.42-.57,2.09,2.09,0,0,0-1.72.82,3.36,3.36,0,0,0-.66,2.18,2.09,2.09,0,0,0,.52,1.5,1.82,1.82,0,0,0,1.42.57A2.12,2.12,0,0,0,110.41,19.91Z"/><path class="cls-4" d="M133.8,11.63l-7.9,13.13h-5.62l-2.66-13.13H123l1.3,7.06,4.17-7.06Z"/><path class="cls-4" d="M134.61,11.63H140L137.4,24.76H132Zm1.06-1.79A2.33,2.33,0,0,1,134.83,8a2.7,2.7,0,0,1,1-2.12,3.64,3.64,0,0,1,2.49-.84,3.43,3.43,0,0,1,2.24.69,2.19,2.19,0,0,1,.84,1.79,2.8,2.8,0,0,1-1,2.2,3.64,3.64,0,0,1-2.51.84A3.26,3.26,0,0,1,135.67,9.84Z"/><path class="cls-4" d="M157.87,7l-3.55,17.81H149.2l.24-1.2A4.88,4.88,0,0,1,145.92,25a5.16,5.16,0,0,1-2.6-.72,5.45,5.45,0,0,1-2-2.1,6.51,6.51,0,0,1-.78-3.25,7.86,7.86,0,0,1,.94-3.84A7.21,7.21,0,0,1,144,12.37a6.59,6.59,0,0,1,3.48-1A4.25,4.25,0,0,1,151.24,13l1.2-6ZM146.53,20.16a1.82,1.82,0,0,0,1.43.57,2.11,2.11,0,0,0,1.71-.82,3.36,3.36,0,0,0,.66-2.18,2.13,2.13,0,0,0-.51-1.5,1.84,1.84,0,0,0-1.43-.57,2.09,2.09,0,0,0-1.72.82,3.36,3.36,0,0,0-.66,2.18A2.09,2.09,0,0,0,146.53,20.16Z"/><path class="cls-4" d="M171.84,19.45h-9.2a1.68,1.68,0,0,0,.8,1.18,3.44,3.44,0,0,0,1.72.36,4.65,4.65,0,0,0,2.86-.91l2.26,3.29A10,10,0,0,1,164.54,25a9,9,0,0,1-3.78-.75,5.77,5.77,0,0,1-2.54-2.11,5.7,5.7,0,0,1-.9-3.21,7.44,7.44,0,0,1,1-3.88,7.14,7.14,0,0,1,2.86-2.69,9,9,0,0,1,4.25-1,8.11,8.11,0,0,1,3.58.73,5.34,5.34,0,0,1,2.3,2,5.68,5.68,0,0,1,.79,3A9.86,9.86,0,0,1,171.84,19.45Zm-8.1-3.9a2.74,2.74,0,0,0-.88,1.29h4.3a1.65,1.65,0,0,0-.53-1.29,2.07,2.07,0,0,0-1.42-.46A2.29,2.29,0,0,0,163.74,15.55Z"/><path class="cls-4" d="M184.34,11.39l-1,4.8a7.94,7.94,0,0,0-1.18-.1,3.52,3.52,0,0,0-2.19.62,3.13,3.13,0,0,0-1.09,2l-1.23,6.07h-5.42l2.61-13.13H180L179.73,13A6.32,6.32,0,0,1,184.34,11.39Z"/><path class="cls-4" d="M185.4,24.66a8.34,8.34,0,0,1-2.48-.86l1.88-3.7A7.48,7.48,0,0,0,187,21a9.63,9.63,0,0,0,2.39.31c1.07,0,1.6-.21,1.6-.62,0-.18-.14-.31-.42-.4a8.36,8.36,0,0,0-1.33-.25,17,17,0,0,1-2.4-.52,4.15,4.15,0,0,1-1.73-1.05,2.91,2.91,0,0,1-.74-2.1,4.1,4.1,0,0,1,2.06-3.7,10,10,0,0,1,5.33-1.27,14.64,14.64,0,0,1,2.77.25,10.15,10.15,0,0,1,2.37.73L195,16.07a7.66,7.66,0,0,0-3.92-1,3.07,3.07,0,0,0-1.26.19q-.39.2-.39.45c0,.18.13.31.41.4a10.31,10.31,0,0,0,1.39.3,16.3,16.3,0,0,1,2.36.52A4,4,0,0,1,195.3,18a2.91,2.91,0,0,1,.73,2.08,4,4,0,0,1-1,2.7,5.92,5.92,0,0,1-2.64,1.67,12.14,12.14,0,0,1-3.74.55A15.33,15.33,0,0,1,185.4,24.66Z"/></g></g></svg>